<?xml version='1.0' encoding='utf-8'?>
<svg xmlns="http://www.w3.org/2000/svg" clip-rule="evenodd" fill-rule="evenodd" stroke-linejoin="round" stroke-miterlimit="2" version="1.1" viewBox="0 0 500 500"> <path d="m104.09 397.38c0.114 0.119 0.231 0.234 0.351 0.346 37.456 36.913 88.869 59.706 145.56 59.706s108.11-22.793 145.57-59.715c0.113-0.106 0.224-0.216 0.333-0.329 37.987-37.605 61.532-89.771 61.532-147.39v-2e-3c0-57.621-23.545-109.79-61.529-147.39l-0.583-0.574c-9.649-9.45-20.176-17.983-31.457-25.411-18.455-12.152-38.845-21.326-60.192-27.037-17.497-4.681-35.568-6.995-53.676-7.024-56.694 0-108.11 22.793-145.57 59.715-0.117 0.109-0.231 0.222-0.342 0.337-37.978 37.598-61.523 89.763-61.523 147.38s23.545 109.79 61.523 147.38zm65.256-28.763c-14.223 5.756-28.728 13.368-43.367 23.202 26.935 23.581 60.649 39.623 97.82 44.802-23.364-22.961-41.192-45.718-54.453-68.004zm160.76 0.932c-13.202 21.988-30.857 44.43-53.895 67.072 37.146-5.178 70.839-21.201 97.778-44.768-8.97-5.797-24.133-14.588-43.883-22.304zm-70.601-15.83v72.643c22.225-21.354 39.353-42.484 52.214-63.185-15.574-4.715-33.159-8.33-52.214-9.458zm-19-0.263c-16.809 0.533-34.537 3.155-52.848 8.695 12.931 21.03 30.257 42.504 52.848 64.21v-72.905zm147.44 24.868c29.311-31.487 47.984-73.015 50.264-118.83h-74.64c-0.109 4.477-0.365 8.993-0.778 13.55-2.311 25.441-9.49 52.206-23.439 79.784 22.793 9.169 39.719 19.518 48.593 25.495zm-227.81-26.538c-13.606-27.216-20.633-53.624-22.914-78.741-0.413-4.556-0.669-9.072-0.778-13.55h-74.64c2.28 45.807 20.947 87.329 50.254 118.82 16.214-11.239 32.289-19.939 48.078-26.528zm161.19-5.48c13.415-25.897 20.364-51.024 22.539-74.98 0.362-3.98 0.593-7.926 0.702-11.831h-85.062v75.117c22.777 1.272 43.649 5.836 61.821 11.694zm-80.821-11.963v-74.848h-85.062c0.109 3.911 0.34 7.854 0.702 11.831 2.142 23.595 8.916 48.327 21.938 73.812 21.682-7.029 42.644-10.243 62.422-10.795zm197.7-93.848c-2.28-45.811-20.95-87.335-50.264-118.83-9.204 6.2-27.067 17.1-51.152 26.509 13.571 26.981 24.056 58.191 26.362 92.32h75.054zm-94.057 0c-2.28-31.874-12.267-60.972-25.118-86.083-17.632 5.506-37.704 9.746-59.526 10.966v75.117h84.644zm-103.64 0v-74.848c-19.086-0.534-39.264-3.543-60.122-10.062-12.561 24.833-22.278 53.525-24.523 84.91h84.645zm-103.65 0c2.275-33.671 12.512-64.5 25.823-91.245-16.59-6.701-33.53-15.727-50.623-27.574-29.306 31.485-47.975 73.008-50.255 118.82h75.055zm103.65-166.75c-13.472 13.441-33.472 35.794-50.705 64.731 17.554 5.105 34.551 7.546 50.705 8.06v-72.791zm19-1e-3v72.528c18.193-1.076 35.047-4.42 50.089-8.825-17.089-28.434-36.774-50.418-50.089-63.703zm-35.176-10.446c-37.372 5.099-71.274 21.176-98.348 44.876 15.474 10.394 30.799 18.306 45.803 24.17 17.473-30.167 37.889-53.923 52.545-69.046zm51.352 0c14.502 14.966 34.639 38.376 51.986 68.084 20.941-7.934 36.983-17.208 46.322-23.243-27.064-23.677-60.952-39.742-98.308-44.841z" fill="#1f4073"/> </svg>